<svg height="1390" width="720" xmlns="http://www.w3.org/2000/svg">
<rect height="1390" fill="#555" width="720"></rect>
<text fill="#7f7" font-family="Courier New" font-size="12" xml:space="preserve">
<tspan x="10" y="26">6 megabytes installed</tspan>
<tspan x="10" y="42"></tspan>
<tspan x="10" y="58">node_modules</tspan>
<tspan x="10" y="74">└─┬ tn@4.2.0 </tspan>
<tspan x="10" y="90">  ├─┬ appc-compat@1.0.3 </tspan>
<tspan x="10" y="106">  │ └─┬ deasync@0.1.9 </tspan>
<tspan x="10" y="122">  │   ├── bindings@1.2.1 </tspan>
<tspan x="10" y="138">  │   └── nan@2.6.2 </tspan>
<tspan x="10" y="154">  ├── colors@1.1.2 </tspan>
<tspan x="10" y="170">  ├─┬ fields@0.1.24 </tspan>
<tspan x="10" y="186">  │ ├── colors@0.6.2 </tspan>
<tspan x="10" y="202">  │ ├── keypress@0.2.1 </tspan>
<tspan x="10" y="218">  │ └── sprintf@0.1.5 </tspan>
<tspan x="10" y="234">  ├── underscore@1.8.3 </tspan>
<tspan x="10" y="250">  └─┬ update-notifier@0.6.3 </tspan>
<tspan x="10" y="266">    ├─┬ boxen@0.3.1 </tspan>
<tspan x="10" y="282">    │ ├── filled-array@1.1.0 </tspan>
<tspan x="10" y="298">    │ ├── object-assign@4.1.1 </tspan>
<tspan x="10" y="314">    │ ├─┬ repeating@2.0.1 </tspan>
<tspan x="10" y="330">    │ │ └─┬ is-finite@1.0.2 </tspan>
<tspan x="10" y="346">    │ │   └── number-is-nan@1.0.1 </tspan>
<tspan x="10" y="362">    │ ├─┬ string-width@1.0.2 </tspan>
<tspan x="10" y="378">    │ │ ├── code-point-at@1.1.0 </tspan>
<tspan x="10" y="394">    │ │ └── is-fullwidth-code-point@1.0.0 </tspan>
<tspan x="10" y="410">    │ └── widest-line@1.0.0 </tspan>
<tspan x="10" y="426">    ├─┬ chalk@1.1.3 </tspan>
<tspan x="10" y="442">    │ ├── ansi-styles@2.2.1 </tspan>
<tspan x="10" y="458">    │ ├── escape-string-regexp@1.0.5 </tspan>
<tspan x="10" y="474">    │ ├─┬ has-ansi@2.0.0 </tspan>
<tspan x="10" y="490">    │ │ └── ansi-regex@2.1.1 </tspan>
<tspan x="10" y="506">    │ ├── strip-ansi@3.0.1 </tspan>
<tspan x="10" y="522">    │ └── supports-color@2.0.0 </tspan>
<tspan x="10" y="538">    ├─┬ configstore@2.1.0 </tspan>
<tspan x="10" y="554">    │ ├─┬ dot-prop@3.0.0 </tspan>
<tspan x="10" y="570">    │ │ └── is-obj@1.0.1 </tspan>
<tspan x="10" y="586">    │ ├── graceful-fs@4.1.11 </tspan>
<tspan x="10" y="602">    │ ├─┬ mkdirp@0.5.1 </tspan>
<tspan x="10" y="618">    │ │ └── minimist@0.0.8 </tspan>
<tspan x="10" y="634">    │ ├── os-tmpdir@1.0.2 </tspan>
<tspan x="10" y="650">    │ ├─┬ osenv@0.1.4 </tspan>
<tspan x="10" y="666">    │ │ └── os-homedir@1.0.2 </tspan>
<tspan x="10" y="682">    │ ├── uuid@2.0.3 </tspan>
<tspan x="10" y="698">    │ ├─┬ write-file-atomic@1.3.1 </tspan>
<tspan x="10" y="714">    │ │ ├── imurmurhash@0.1.4 </tspan>
<tspan x="10" y="730">    │ │ └── slide@1.1.6 </tspan>
<tspan x="10" y="746">    │ └── xdg-basedir@2.0.0 </tspan>
<tspan x="10" y="762">    ├── is-npm@1.0.0 </tspan>
<tspan x="10" y="778">    ├─┬ latest-version@2.0.0 </tspan>
<tspan x="10" y="794">    │ └─┬ package-json@2.4.0 </tspan>
<tspan x="10" y="810">    │   ├─┬ got@5.7.1 </tspan>
<tspan x="10" y="826">    │   │ ├─┬ create-error-class@3.0.2 </tspan>
<tspan x="10" y="842">    │   │ │ └── capture-stack-trace@1.0.0 </tspan>
<tspan x="10" y="858">    │   │ ├── duplexer2@0.1.4 </tspan>
<tspan x="10" y="874">    │   │ ├── is-redirect@1.0.0 </tspan>
<tspan x="10" y="890">    │   │ ├── is-retry-allowed@1.1.0 </tspan>
<tspan x="10" y="906">    │   │ ├── is-stream@1.1.0 </tspan>
<tspan x="10" y="922">    │   │ ├── lowercase-keys@1.0.0 </tspan>
<tspan x="10" y="938">    │   │ ├── node-status-codes@1.0.0 </tspan>
<tspan x="10" y="954">    │   │ ├─┬ parse-json@2.2.0 </tspan>
<tspan x="10" y="970">    │   │ │ └─┬ error-ex@1.3.1 </tspan>
<tspan x="10" y="986">    │   │ │   └── is-arrayish@0.2.1 </tspan>
<tspan x="10" y="1002">    │   │ ├─┬ pinkie-promise@2.0.1 </tspan>
<tspan x="10" y="1018">    │   │ │ └── pinkie@2.0.4 </tspan>
<tspan x="10" y="1034">    │   │ ├── read-all-stream@3.1.0 </tspan>
<tspan x="10" y="1050">    │   │ ├─┬ readable-stream@2.2.9 </tspan>
<tspan x="10" y="1066">    │   │ │ ├── buffer-shims@1.0.0 </tspan>
<tspan x="10" y="1082">    │   │ │ ├── core-util-is@1.0.2 </tspan>
<tspan x="10" y="1098">    │   │ │ ├── inherits@2.0.3 </tspan>
<tspan x="10" y="1114">    │   │ │ ├── isarray@1.0.0 </tspan>
<tspan x="10" y="1130">    │   │ │ ├── process-nextick-args@1.0.7 </tspan>
<tspan x="10" y="1146">    │   │ │ ├── string_decoder@1.0.0 </tspan>
<tspan x="10" y="1162">    │   │ │ └── util-deprecate@1.0.2 </tspan>
<tspan x="10" y="1178">    │   │ ├── timed-out@3.1.3 </tspan>
<tspan x="10" y="1194">    │   │ ├── unzip-response@1.0.2 </tspan>
<tspan x="10" y="1210">    │   │ └─┬ url-parse-lax@1.0.0 </tspan>
<tspan x="10" y="1226">    │   │   └── prepend-http@1.0.4 </tspan>
<tspan x="10" y="1242">    │   ├─┬ registry-auth-token@3.1.2 </tspan>
<tspan x="10" y="1258">    │   │ └─┬ rc@1.2.1 </tspan>
<tspan x="10" y="1274">    │   │   ├── deep-extend@0.4.1 </tspan>
<tspan x="10" y="1290">    │   │   ├── ini@1.3.4 </tspan>
<tspan x="10" y="1306">    │   │   ├── minimist@1.2.0 </tspan>
<tspan x="10" y="1322">    │   │   └── strip-json-comments@2.0.1 </tspan>
<tspan x="10" y="1338">    │   └── registry-url@3.1.0 </tspan>
<tspan x="10" y="1354">    └─┬ semver-diff@2.1.0 </tspan>
<tspan x="10" y="1370">      └── semver@5.3.0</tspan>
</text>
</svg>
